<svg width="428" height="926" viewBox="0 0 428 926" fill="none" xmlns="http://www.w3.org/2000/svg">
<rect width="428" height="926" fill="white"/>
<rect width="428" height="926" fill="url(#paint0_radial_591_1167)"/>
<path d="M215.639 461.052L139.815 420.651L215.639 380.056L291.069 420.651L215.639 461.052Z" fill="#593C2A"/>
<path d="M291.069 420.651L215.639 380.056L239.076 359.758L313.127 398.613L291.069 420.651Z" fill="#794C2F"/>
<path d="M115 396.874L190.627 357.052L215.639 380.056L139.815 420.651L115 396.874Z" fill="#845639"/>
<path d="M165.704 421.472L168.776 432.98L270.256 406.885L267.185 395.377L165.704 421.472Z" fill="black"/>
<path d="M169.423 435.403L172.764 447.921L199.528 441.038L196.187 428.521L169.423 435.403Z" fill="black"/>
<path d="M198.64 427.89L201.981 440.408L244.358 429.511L241.017 416.993L198.64 427.89Z" fill="black"/>
<path d="M243.47 416.362L246.811 428.88L274.244 421.826L270.903 409.308L243.47 416.362Z" fill="black"/>
<path d="M202.843 443.638L206.023 455.55L248.399 444.653L245.22 432.741L202.843 443.638Z" fill="black"/>
<path d="M200.39 444.269L203.569 456.181L176.805 463.063L173.626 451.151L200.39 444.269Z" fill="black"/>
<path d="M177.398 465.284L181.116 479.215L282.597 453.12L278.879 439.189L177.398 465.284Z" fill="black"/>
<path d="M247.673 432.11L250.853 444.022L278.286 436.968L275.106 425.056L247.673 432.11Z" fill="black"/>
<path d="M165.704 421.472L168.776 432.98L270.256 406.885L267.185 395.377L165.704 421.472Z" stroke="white" stroke-width="2"/>
<path d="M169.423 435.403L172.764 447.921L199.528 441.038L196.187 428.521L169.423 435.403Z" stroke="white" stroke-width="2"/>
<path d="M198.64 427.89L201.981 440.408L244.358 429.511L241.017 416.993L198.64 427.89Z" stroke="white" stroke-width="2"/>
<path d="M243.47 416.362L246.811 428.88L274.244 421.826L270.903 409.308L243.47 416.362Z" stroke="white" stroke-width="2"/>
<path d="M202.843 443.638L206.023 455.55L248.399 444.653L245.22 432.741L202.843 443.638Z" stroke="white" stroke-width="2"/>
<path d="M200.39 444.269L203.569 456.181L176.805 463.063L173.626 451.151L200.39 444.269Z" stroke="white" stroke-width="2"/>
<path d="M177.398 465.284L181.116 479.215L282.597 453.12L278.879 439.189L177.398 465.284Z" stroke="white" stroke-width="2"/>
<path d="M247.673 432.11L250.853 444.022L278.286 436.968L275.106 425.056L247.673 432.11Z" stroke="white" stroke-width="2"/>
<path d="M162.114 413.91L163.866 420.472L166.586 412.76L162.114 413.91Z" fill="black"/>
<path d="M268.944 396.081L266.536 387.059L263.182 387.922L260 398.381L268.944 396.081Z" fill="black"/>
<path d="M248.82 401.256L252.226 390.739L244.176 392.809L240.771 403.326L248.82 401.256Z" fill="black"/>
<path d="M229.814 406.143L232.996 395.684L223.157 398.214L220.423 408.558L229.814 406.143Z" fill="black"/>
<path d="M209.019 411.491L212.201 401.031L200.35 404.078L197.168 414.538L209.019 411.491Z" fill="black"/>
<path d="M185.765 417.47L189.617 406.838L177.543 409.943L174.361 420.403L185.765 417.47Z" fill="black"/>
<path d="M266.536 387.059L267.02 386.935L266.891 386.451L266.407 386.576L266.536 387.059ZM268.944 396.081L269.073 396.564L269.557 396.44L269.429 395.957L268.944 396.081ZM164.522 422.933L164.038 423.057L164.167 423.54L164.651 423.416L164.522 422.933ZM162.114 413.91L161.985 413.427L161.501 413.552L161.63 414.035L162.114 413.91ZM266.052 387.184L268.46 396.206L269.429 395.957L267.02 386.935L266.052 387.184ZM268.815 395.598L259.871 397.898L260.129 398.864L269.073 396.564L268.815 395.598ZM263.311 388.405L266.665 387.542L266.407 386.576L263.053 387.438L263.311 388.405ZM260.48 398.529L263.662 388.07L262.702 387.773L259.521 398.233L260.48 398.529ZM252.355 391.222L263.311 388.405L263.053 387.438L252.097 390.256L252.355 391.222ZM259.871 397.898L248.691 400.773L248.949 401.739L260.129 398.864L259.871 397.898ZM251.749 390.582L248.343 401.1L249.297 401.413L252.703 390.895L251.749 390.582ZM248.691 400.773L240.642 402.843L240.899 403.809L248.949 401.739L248.691 400.773ZM244.305 393.292L252.355 391.222L252.097 390.256L244.047 392.326L244.305 393.292ZM241.248 403.483L244.653 392.965L243.699 392.652L240.293 403.17L241.248 403.483ZM240.642 402.843L229.685 405.66L229.943 406.627L240.899 403.809L240.642 402.843ZM233.125 396.167L244.305 393.292L244.047 392.326L232.867 395.201L233.125 396.167ZM230.294 406.292L233.476 395.832L232.516 395.536L229.334 405.995L230.294 406.292ZM229.685 405.66L220.294 408.075L220.552 409.041L229.943 406.627L229.685 405.66ZM223.286 398.697L233.125 396.167L232.867 395.201L223.029 397.73L223.286 398.697ZM220.907 408.689L223.642 398.344L222.673 398.083L219.938 408.428L220.907 408.689ZM220.294 408.075L208.89 411.008L209.148 411.974L220.552 409.041L220.294 408.075ZM212.33 401.514L223.286 398.697L223.029 397.73L212.072 400.548L212.33 401.514ZM209.499 411.639L212.681 401.179L211.721 400.883L208.539 411.343L209.499 411.639ZM208.89 411.008L197.039 414.055L197.297 415.021L209.148 411.974L208.89 411.008ZM200.479 404.561L212.33 401.514L212.072 400.548L200.221 403.595L200.479 404.561ZM197.648 414.686L200.83 404.226L199.87 403.93L196.689 414.39L197.648 414.686ZM197.039 414.055L185.636 416.987L185.893 417.954L197.297 415.021L197.039 414.055ZM189.746 407.321L200.479 404.561L200.221 403.595L189.488 406.355L189.746 407.321ZM186.236 417.643L190.089 407.011L189.146 406.666L185.293 417.298L186.236 417.643ZM185.636 416.987L174.232 419.92L174.49 420.886L185.893 417.954L185.636 416.987ZM174.232 419.92L164.393 422.45L164.651 423.416L174.49 420.886L174.232 419.92ZM177.672 410.426L189.746 407.321L189.488 406.355L177.414 409.46L177.672 410.426ZM174.841 420.551L178.022 410.091L177.063 409.795L173.881 420.255L174.841 420.551ZM165.007 422.808L164.35 420.348L163.381 420.597L164.038 423.057L165.007 422.808ZM164.35 420.348L162.599 413.786L161.63 414.035L163.381 420.597L164.35 420.348ZM162.243 414.393L166.715 413.244L166.457 412.277L161.985 413.427L162.243 414.393ZM166.715 413.244L177.672 410.426L177.414 409.46L166.457 412.277L166.715 413.244ZM164.339 420.641L167.059 412.929L166.113 412.592L163.393 420.303L164.339 420.641Z" fill="black"/>
<path d="M164.522 422.933L174.361 420.403L177.543 409.943L166.586 412.76L163.866 420.472L164.522 422.933Z" fill="white"/>
<path d="M197.168 414.538L200.35 404.078L189.617 406.838L185.765 417.47L197.168 414.538Z" fill="white"/>
<path d="M220.423 408.558L223.157 398.214L212.201 401.031L209.019 411.491L220.423 408.558Z" fill="white"/>
<path d="M240.771 403.326L244.176 392.809L232.996 395.684L229.814 406.143L240.771 403.326Z" fill="white"/>
<path d="M260 398.381L263.182 387.922L252.226 390.739L248.82 401.256L260 398.381Z" fill="white"/>
<path d="M260 398.381L268.944 396.081L266.536 387.059L263.182 387.922M260 398.381L263.182 387.922M260 398.381L248.82 401.256M263.182 387.922L252.226 390.739M252.226 390.739L248.82 401.256M252.226 390.739L244.176 392.809M248.82 401.256L240.771 403.326M240.771 403.326L244.176 392.809M240.771 403.326L229.814 406.143M244.176 392.809L232.996 395.684M229.814 406.143L232.996 395.684M229.814 406.143L220.423 408.558M232.996 395.684L223.157 398.214M220.423 408.558L223.157 398.214M220.423 408.558L209.019 411.491M223.157 398.214L212.201 401.031M209.019 411.491L212.201 401.031M209.019 411.491L197.168 414.538M212.201 401.031L200.35 404.078M197.168 414.538L200.35 404.078M197.168 414.538L185.765 417.47M200.35 404.078L189.617 406.838M185.765 417.47L189.617 406.838M185.765 417.47L174.361 420.403M189.617 406.838L177.543 409.943M174.361 420.403L164.522 422.933L163.866 420.472M174.361 420.403L177.543 409.943M177.543 409.943L166.586 412.76M163.866 420.472L162.114 413.91L166.586 412.76M163.866 420.472L166.586 412.76" stroke="white" stroke-width="2"/>
<path d="M157.225 407.371L163.892 415.382L172.799 409.469L161.089 404.882L157.225 407.371Z" fill="black"/>
<path d="M170.037 399.119L181.302 403.824L187.805 399.507L177.358 394.405L170.037 399.119Z" fill="black"/>
<path d="M186.509 388.511L197.371 393.157L205.393 387.832L194.719 383.223L186.509 388.511Z" fill="black"/>
<path d="M203.997 377.248L214.705 381.65L224.22 375.334L213.962 370.83L203.997 377.248Z" fill="black"/>
<path d="M223.723 364.544L233.937 368.883L243.553 362.5L233.891 357.995L223.723 364.544Z" fill="black"/>
<path d="M253.169 356.116L247.719 349.089L243.245 351.971L253.169 356.116Z" fill="black"/>
<path d="M253.169 356.116L247.719 349.089L243.245 351.971M253.169 356.116L243.553 362.5M253.169 356.116L243.245 351.971M161.089 404.882L157.225 407.371L163.892 415.382L172.799 409.469M161.089 404.882L172.799 409.469M161.089 404.882L170.037 399.119M172.799 409.469L181.302 403.824M181.302 403.824L170.037 399.119M181.302 403.824L187.805 399.507M170.037 399.119L177.358 394.405M177.358 394.405L187.805 399.507M177.358 394.405L186.509 388.511M187.805 399.507L197.371 393.157M186.509 388.511L197.371 393.157M186.509 388.511L194.719 383.223M197.371 393.157L205.393 387.832M194.719 383.223L205.393 387.832M194.719 383.223L203.997 377.248M205.393 387.832L214.705 381.65M203.997 377.248L214.705 381.65M203.997 377.248L213.962 370.83M214.705 381.65L224.22 375.334M213.962 370.83L224.22 375.334M213.962 370.83L223.723 364.544M224.22 375.334L233.937 368.883M223.723 364.544L233.937 368.883M223.723 364.544L233.891 357.995M233.937 368.883L243.553 362.5M233.891 357.995L243.553 362.5M233.891 357.995L243.245 351.971" stroke="black"/>
<path d="M161.089 404.882L172.799 409.469L181.302 403.824L170.037 399.119L161.089 404.882Z" fill="white"/>
<path d="M177.358 394.405L187.805 399.507L197.371 393.157L186.509 388.511L177.358 394.405Z" fill="white"/>
<path d="M194.719 383.223L205.393 387.832L214.705 381.65L203.997 377.248L194.719 383.223Z" fill="white"/>
<path d="M213.962 370.83L224.22 375.334L233.937 368.883L223.723 364.544L213.962 370.83Z" fill="white"/>
<path d="M243.553 362.5L253.169 356.116L243.245 351.971L233.891 357.995L243.553 362.5Z" fill="white"/>
<path d="M253.169 356.116L247.719 349.089L243.245 351.971M253.169 356.116L243.553 362.5M253.169 356.116L243.245 351.971M161.089 404.882L157.225 407.371L163.892 415.382L172.799 409.469M161.089 404.882L172.799 409.469M161.089 404.882L170.037 399.119M172.799 409.469L181.302 403.824M181.302 403.824L170.037 399.119M181.302 403.824L187.805 399.507M170.037 399.119L177.358 394.405M177.358 394.405L187.805 399.507M177.358 394.405L186.509 388.511M187.805 399.507L197.371 393.157M186.509 388.511L197.371 393.157M186.509 388.511L194.719 383.223M197.371 393.157L205.393 387.832M194.719 383.223L205.393 387.832M194.719 383.223L203.997 377.248M205.393 387.832L214.705 381.65M203.997 377.248L214.705 381.65M203.997 377.248L213.962 370.83M214.705 381.65L224.22 375.334M213.962 370.83L224.22 375.334M213.962 370.83L223.723 364.544M224.22 375.334L233.937 368.883M223.723 364.544L233.937 368.883M223.723 364.544L233.891 357.995M233.937 368.883L243.553 362.5M233.891 357.995L243.553 362.5M233.891 357.995L243.245 351.971" stroke="white" stroke-width="2"/>
<path fill-rule="evenodd" clip-rule="evenodd" d="M162.537 409.96C160.192 410.131 161.394 419.109 164.748 418.247L175.381 414.217C177.957 413.122 177.487 409.571 175.313 409.482L162.537 409.96ZM165.227 414.668C166.412 414.633 166.867 415.801 165.658 416.285C164.147 416.889 164.278 414.696 165.227 414.668ZM163.901 413.281C165.288 414.004 166.949 412.017 165.088 411.464C163.531 411 162.919 412.77 163.901 413.281ZM174.518 410.983C175.127 411.474 174.72 413.4 173.223 412.396C172.059 411.615 173.686 410.549 174.518 410.983Z" fill="#D9D9D9"/>
<path d="M163.901 413.281C165.288 414.004 166.949 412.017 165.088 411.464L163.901 413.281Z" fill="#D9D9D9"/>
<path d="M165.088 411.464C163.531 411 162.919 412.77 163.901 413.281L165.088 411.464Z" fill="#D9D9D9"/>
<path d="M165.658 416.285C164.147 416.889 164.278 414.696 165.227 414.668L165.658 416.285Z" fill="#D9D9D9"/>
<path d="M165.227 414.668C166.412 414.633 166.867 415.801 165.658 416.285L165.227 414.668Z" fill="#D9D9D9"/>
<path d="M174.518 410.983C175.127 411.474 174.72 413.4 173.223 412.396L174.518 410.983Z" fill="#D9D9D9"/>
<path d="M173.223 412.396C172.059 411.615 173.686 410.549 174.518 410.983L173.223 412.396Z" fill="#D9D9D9"/>
<path d="M165.227 414.668C166.412 414.633 166.867 415.801 165.658 416.285M165.227 414.668C164.278 414.696 164.147 416.889 165.658 416.285M165.227 414.668L165.658 416.285M163.901 413.281C165.288 414.004 166.949 412.017 165.088 411.464M163.901 413.281C162.919 412.77 163.531 411 165.088 411.464M163.901 413.281L165.088 411.464M174.518 410.983C175.127 411.474 174.72 413.4 173.223 412.396M174.518 410.983C173.686 410.549 172.059 411.615 173.223 412.396M174.518 410.983L173.223 412.396M162.537 409.96C160.192 410.131 161.394 419.109 164.748 418.247L175.381 414.217C177.957 413.122 177.487 409.571 175.313 409.482L162.537 409.96Z" stroke="black"/>
<path d="M291.069 514.985V421.037L279.449 427.04V521.171L291.069 514.985Z" fill="#5A391F"/>
<path d="M291.069 420.651L283.782 424.13L307.022 447.907L313.915 444.041L291.069 420.651Z" fill="#68472B"/>
<path d="M140.209 420.844V514.599L215.639 555V460.859L140.209 420.844Z" fill="#845E3A"/>
<path d="M215.442 555V463.372V461.245L279.646 427.223V520.978L215.442 555Z" fill="#6C482A"/>
<path d="M115.394 443.074L139.815 420.651L216.033 461.245L193.187 485.216L115.394 443.074Z" fill="#9C6D40"/>
<path d="M215.442 460.859L284.767 423.743L308.203 447.134L238.682 484.442L215.442 460.859Z" fill="#7C5530"/>
<path d="M129.761 485.727H136.727L142.636 500.136H142.909L148.818 485.727H155.784V509H150.307V494.705H150.114L144.523 508.852H141.023L135.432 494.625H135.239V509H129.761V485.727ZM167.44 509.33C165.607 509.33 164.031 508.955 162.713 508.205C161.402 507.447 160.391 506.394 159.679 505.045C158.974 503.689 158.622 502.117 158.622 500.33C158.622 498.534 158.974 496.962 159.679 495.614C160.391 494.258 161.402 493.205 162.713 492.455C164.031 491.697 165.607 491.318 167.44 491.318C169.274 491.318 170.846 491.697 172.156 492.455C173.474 493.205 174.486 494.258 175.19 495.614C175.902 496.962 176.259 498.534 176.259 500.33C176.259 502.117 175.902 503.689 175.19 505.045C174.486 506.394 173.474 507.447 172.156 508.205C170.846 508.955 169.274 509.33 167.44 509.33ZM167.474 505.136C168.141 505.136 168.705 504.932 169.168 504.523C169.63 504.114 169.982 503.545 170.224 502.818C170.474 502.091 170.599 501.25 170.599 500.295C170.599 499.326 170.474 498.477 170.224 497.75C169.982 497.023 169.63 496.455 169.168 496.045C168.705 495.636 168.141 495.432 167.474 495.432C166.785 495.432 166.202 495.636 165.724 496.045C165.255 496.455 164.895 497.023 164.645 497.75C164.402 498.477 164.281 499.326 164.281 500.295C164.281 501.25 164.402 502.091 164.645 502.818C164.895 503.545 165.255 504.114 165.724 504.523C166.202 504.932 166.785 505.136 167.474 505.136ZM195.474 491.545L189.486 509H183.122L177.145 491.545H182.997L186.213 503.568H186.395L189.622 491.545H195.474ZM197.605 509V491.545H203.162V509H197.605ZM200.389 489.511C199.609 489.511 198.938 489.254 198.378 488.739C197.817 488.216 197.537 487.587 197.537 486.852C197.537 486.125 197.817 485.504 198.378 484.989C198.938 484.466 199.609 484.205 200.389 484.205C201.177 484.205 201.848 484.466 202.401 484.989C202.961 485.504 203.241 486.125 203.241 486.852C203.241 487.587 202.961 488.216 202.401 488.739C201.848 489.254 201.177 489.511 200.389 489.511ZM214.858 509.33C213.032 509.33 211.456 508.97 210.131 508.25C208.813 507.523 207.797 506.489 207.085 505.148C206.381 503.799 206.028 502.197 206.028 500.341C206.028 498.538 206.384 496.962 207.097 495.614C207.809 494.258 208.812 493.205 210.108 492.455C211.403 491.697 212.93 491.318 214.688 491.318C215.93 491.318 217.066 491.511 218.097 491.898C219.127 492.284 220.017 492.856 220.767 493.614C221.517 494.371 222.1 495.307 222.517 496.42C222.934 497.527 223.142 498.795 223.142 500.227V501.614H207.972V498.386H217.972C217.964 497.795 217.824 497.269 217.551 496.807C217.278 496.345 216.903 495.985 216.426 495.727C215.956 495.462 215.415 495.33 214.801 495.33C214.18 495.33 213.623 495.47 213.131 495.75C212.638 496.023 212.248 496.398 211.96 496.875C211.672 497.345 211.521 497.879 211.506 498.477V501.761C211.506 502.473 211.646 503.098 211.926 503.636C212.206 504.167 212.604 504.58 213.119 504.875C213.634 505.17 214.248 505.318 214.96 505.318C215.453 505.318 215.9 505.25 216.301 505.114C216.703 504.977 217.047 504.777 217.335 504.511C217.623 504.246 217.839 503.92 217.983 503.534L223.085 503.682C222.873 504.826 222.407 505.822 221.688 506.67C220.975 507.511 220.04 508.167 218.881 508.636C217.722 509.098 216.381 509.33 214.858 509.33Z" fill="white"/>
<path d="M207.761 543V519.727H217.466C219.208 519.727 220.667 519.973 221.841 520.466C223.023 520.958 223.909 521.648 224.5 522.534C225.098 523.42 225.398 524.447 225.398 525.614C225.398 526.5 225.212 527.292 224.841 527.989C224.47 528.678 223.958 529.25 223.307 529.705C222.655 530.159 221.902 530.477 221.045 530.659V530.886C221.985 530.932 222.852 531.186 223.648 531.648C224.451 532.11 225.095 532.754 225.58 533.58C226.064 534.398 226.307 535.367 226.307 536.489C226.307 537.739 225.989 538.856 225.352 539.841C224.716 540.818 223.795 541.591 222.591 542.159C221.386 542.72 219.924 543 218.205 543H207.761ZM213.386 538.466H216.864C218.083 538.466 218.981 538.235 219.557 537.773C220.14 537.311 220.432 536.667 220.432 535.841C220.432 535.242 220.292 534.727 220.011 534.295C219.731 533.856 219.333 533.519 218.818 533.284C218.303 533.042 217.686 532.92 216.966 532.92H213.386V538.466ZM213.386 529.295H216.5C217.114 529.295 217.659 529.193 218.136 528.989C218.614 528.784 218.985 528.489 219.25 528.102C219.523 527.716 219.659 527.25 219.659 526.705C219.659 525.924 219.383 525.311 218.83 524.864C218.277 524.417 217.53 524.193 216.591 524.193H213.386V529.295ZM233.932 543.295C232.818 543.295 231.83 543.11 230.966 542.739C230.11 542.36 229.432 541.792 228.932 541.034C228.439 540.269 228.193 539.311 228.193 538.159C228.193 537.189 228.364 536.371 228.705 535.705C229.045 535.038 229.515 534.496 230.114 534.08C230.712 533.663 231.402 533.348 232.182 533.136C232.962 532.917 233.795 532.769 234.682 532.693C235.674 532.602 236.473 532.508 237.08 532.409C237.686 532.303 238.125 532.155 238.398 531.966C238.678 531.769 238.818 531.492 238.818 531.136V531.08C238.818 530.496 238.617 530.045 238.216 529.727C237.814 529.409 237.273 529.25 236.591 529.25C235.856 529.25 235.265 529.409 234.818 529.727C234.371 530.045 234.087 530.485 233.966 531.045L228.841 530.864C228.992 529.803 229.383 528.856 230.011 528.023C230.648 527.182 231.519 526.523 232.625 526.045C233.739 525.561 235.076 525.318 236.636 525.318C237.75 525.318 238.777 525.451 239.716 525.716C240.655 525.973 241.473 526.352 242.17 526.852C242.867 527.345 243.405 527.951 243.784 528.67C244.17 529.39 244.364 530.212 244.364 531.136V543H239.136V540.568H239C238.689 541.159 238.292 541.659 237.807 542.068C237.33 542.477 236.765 542.784 236.114 542.989C235.47 543.193 234.742 543.295 233.932 543.295ZM235.648 539.659C236.246 539.659 236.784 539.538 237.261 539.295C237.746 539.053 238.133 538.72 238.42 538.295C238.708 537.864 238.852 537.364 238.852 536.795V535.136C238.693 535.22 238.5 535.295 238.273 535.364C238.053 535.432 237.811 535.496 237.545 535.557C237.28 535.617 237.008 535.67 236.727 535.716C236.447 535.761 236.178 535.803 235.92 535.841C235.398 535.924 234.951 536.053 234.58 536.227C234.216 536.402 233.936 536.629 233.739 536.909C233.549 537.182 233.455 537.508 233.455 537.886C233.455 538.462 233.659 538.902 234.068 539.205C234.485 539.508 235.011 539.659 235.648 539.659ZM263 530.875L257.898 531.011C257.845 530.648 257.701 530.326 257.466 530.045C257.231 529.758 256.924 529.534 256.545 529.375C256.174 529.208 255.742 529.125 255.25 529.125C254.606 529.125 254.057 529.254 253.602 529.511C253.155 529.769 252.936 530.117 252.943 530.557C252.936 530.898 253.072 531.193 253.352 531.443C253.64 531.693 254.152 531.894 254.886 532.045L258.25 532.682C259.992 533.015 261.288 533.568 262.136 534.341C262.992 535.114 263.424 536.136 263.432 537.409C263.424 538.606 263.068 539.648 262.364 540.534C261.667 541.42 260.712 542.11 259.5 542.602C258.288 543.087 256.902 543.33 255.341 543.33C252.848 543.33 250.883 542.818 249.443 541.795C248.011 540.765 247.193 539.386 246.989 537.659L252.477 537.523C252.598 538.159 252.913 538.644 253.42 538.977C253.928 539.311 254.576 539.477 255.364 539.477C256.076 539.477 256.655 539.345 257.102 539.08C257.549 538.814 257.777 538.462 257.784 538.023C257.777 537.629 257.602 537.314 257.261 537.08C256.92 536.837 256.386 536.648 255.659 536.511L252.614 535.932C250.864 535.614 249.561 535.027 248.705 534.17C247.848 533.307 247.424 532.208 247.432 530.875C247.424 529.708 247.735 528.712 248.364 527.886C248.992 527.053 249.886 526.417 251.045 525.977C252.205 525.538 253.572 525.318 255.148 525.318C257.511 525.318 259.375 525.814 260.739 526.807C262.102 527.792 262.856 529.148 263 530.875ZM274.327 543.33C272.501 543.33 270.925 542.97 269.599 542.25C268.281 541.523 267.266 540.489 266.554 539.148C265.849 537.799 265.497 536.197 265.497 534.341C265.497 532.538 265.853 530.962 266.565 529.614C267.277 528.258 268.281 527.205 269.577 526.455C270.872 525.697 272.399 525.318 274.156 525.318C275.399 525.318 276.535 525.511 277.565 525.898C278.596 526.284 279.486 526.856 280.236 527.614C280.986 528.371 281.569 529.307 281.986 530.42C282.402 531.527 282.611 532.795 282.611 534.227V535.614H267.44V532.386H277.44C277.433 531.795 277.293 531.269 277.02 530.807C276.747 530.345 276.372 529.985 275.895 529.727C275.425 529.462 274.884 529.33 274.27 529.33C273.649 529.33 273.092 529.47 272.599 529.75C272.107 530.023 271.717 530.398 271.429 530.875C271.141 531.345 270.99 531.879 270.974 532.477V535.761C270.974 536.473 271.115 537.098 271.395 537.636C271.675 538.167 272.073 538.58 272.588 538.875C273.103 539.17 273.717 539.318 274.429 539.318C274.921 539.318 275.368 539.25 275.77 539.114C276.171 538.977 276.516 538.777 276.804 538.511C277.092 538.246 277.308 537.92 277.452 537.534L282.554 537.682C282.342 538.826 281.876 539.822 281.156 540.67C280.444 541.511 279.509 542.167 278.349 542.636C277.19 543.098 275.849 543.33 274.327 543.33Z" fill="white"/>
<defs>
<radialGradient id="paint0_radial_591_1167" cx="0" cy="0" r="1" gradientUnits="userSpaceOnUse" gradientTransform="translate(214 463) rotate(73.8189) scale(767.921 354.936)">
<stop stop-color="#2E2E2E"/>
<stop offset="0.546875" stop-color="#2E2E2E"/>
<stop offset="1" stop-color="#141010"/>
</radialGradient>
</defs>
</svg>
